# xmcd
# 
# Track frame offsets:
#     150
#     12508
#     27917
#     45624
#     58420
#     68714
#     80745
#     94165
#     116315
#     131140
#     146030
#     154867
#     165953
#     181082
# 
# Disc length: 2663
# 
# Revision: 0
# Processed by: cddbd v1.5.2PL0 Copyright (c) Steve Scherf et al.
# Submitted via: fre:ac v1.0.27
# 
DISCID=bc0a650e
DTITLE=The McGillicuddys - Kilt by Death
DYEAR=2002
DGENRE=Folk/Rock
TTITLE0=On the Rocks
TTITLE1=Fade Away
TTITLE2=Lady Owen
TTITLE3=Nancy Whiskey
TTITLE4=One Track Mind
TTITLE5=Father Jacks Favourite
TTITLE6=Please Stay
TTITLE7=Let it Rain
TTITLE8=Buy us a Drink
TTITLE9=The Ballad of William Munny
TTITLE10=The Shakes
TTITLE11=The Leaving of Liverpool
TTITLE12=Anywhere but here
TTITLE13=A Dozen Pints
EXTD=
EXTT0=
EXTT1=
EXTT2=
EXTT3=
EXTT4=
EXTT5=
EXTT6=
EXTT7=
EXTT8=
EXTT9=
EXTT10=
EXTT11=
EXTT12=
EXTT13=
PLAYORDER=
